<?xml version="1.0" encoding="UTF-8"?>
<svg version="1.1" xmlns="http://www.w3.org/2000/svg" width="730" height="322">
<path d="M0 0 C2.18273656 2.13496623 4.26307367 4.32665672 6.3203125 6.58203125 C6.908125 7.17886719 7.4959375 7.77570312 8.1015625 8.390625 C28.62773229 30.08305444 34.16550459 59.83676822 33.44775391 88.58642578 C32.22883411 117.23804619 18.63671914 141.94391482 -1.6796875 161.58203125 C-19.52816865 177.35798512 -40.97781187 185.56259574 -64.6796875 186.58203125 C-65.5975 186.62328125 -66.5153125 186.66453125 -67.4609375 186.70703125 C-94.48561809 187.30098027 -120.32505953 179.90432096 -140.19628906 161.0234375 C-140.68581055 160.54777344 -141.17533203 160.07210937 -141.6796875 159.58203125 C-142.16663086 159.10894531 -142.65357422 158.63585937 -143.15527344 158.1484375 C-152.7773107 148.61040728 -160.04417704 137.6360865 -165.8046875 125.375 C-166.54793835 123.6053302 -166.54793835 123.6053302 -167.6796875 122.58203125 C-167.93621094 123.15308594 -168.19273437 123.72414062 -168.45703125 124.3125 C-179.7916439 148.31745407 -199.96893841 166.87908472 -224.76171875 176.37988281 C-238.92557374 181.44126037 -252.61467528 182.88715879 -267.56640625 182.8125 C-269.16111717 182.81130514 -270.75582881 182.81085568 -272.35054016 182.81111145 C-275.66432203 182.80955976 -278.97799383 182.80136401 -282.29174805 182.7878418 C-286.54666118 182.7707002 -290.8014557 182.7670325 -295.05639935 182.76778698 C-298.33593383 182.76751599 -301.6154422 182.7620488 -304.89496803 182.75478554 C-306.4655214 182.75159938 -308.03607772 182.74963159 -309.60663414 182.74889183 C-311.7868806 182.74673633 -313.96699787 182.73801402 -316.1472168 182.72729492 C-317.38787399 182.72348312 -318.62853119 182.71967133 -319.90678406 182.71574402 C-322.6796875 182.58203125 -322.6796875 182.58203125 -323.6796875 181.58203125 C-323.77971287 178.9540854 -323.81409168 176.35235343 -323.80667114 173.72387695 C-323.80823113 172.89068341 -323.80979112 172.05748987 -323.81139839 171.19904804 C-323.81541195 168.38528528 -323.81221737 165.57157574 -323.80908203 162.7578125 C-323.81043591 160.74946053 -323.81221577 158.74110881 -323.81439209 156.73275757 C-323.81896797 151.26184358 -323.81717623 145.79094836 -323.814013 140.32003403 C-323.8114902 134.60829364 -323.81382672 128.8965549 -323.81539917 123.18481445 C-323.8172211 113.59098012 -323.81481395 103.99715348 -323.81005859 94.40332031 C-323.80461593 83.29420894 -323.80637857 72.18511591 -323.811885 61.07600498 C-323.81641547 51.55672581 -323.817067 42.03745217 -323.81444633 32.51817226 C-323.81288319 26.82449988 -323.8126908 21.13083614 -323.81598282 15.43716431 C-323.81886057 10.08568076 -323.81688761 4.73422099 -323.81108856 -0.61725998 C-323.80976045 -2.58738541 -323.81015594 -4.55751283 -323.81235123 -6.52763748 C-323.81506073 -9.2050573 -323.81168407 -11.88239965 -323.80667114 -14.55981445 C-323.80890186 -15.34997294 -323.81113259 -16.14013144 -323.81343091 -16.95423412 C-323.79383734 -22.30381891 -323.79383734 -22.30381891 -322.6796875 -23.41796875 C-320.56142557 -23.52809846 -318.43944833 -23.56711062 -316.31835938 -23.57910156 C-315.65301682 -23.58406647 -314.98767426 -23.58903137 -314.3021698 -23.59414673 C-312.08424862 -23.60883189 -309.86639949 -23.61558882 -307.6484375 -23.62109375 C-306.09875488 -23.62685002 -304.54907226 -23.63260769 -302.99938965 -23.6383667 C-299.73412749 -23.64890142 -296.46889006 -23.65472459 -293.20361328 -23.65820312 C-289.06754726 -23.66362431 -284.93182119 -23.6875016 -280.79586029 -23.71617508 C-277.58342637 -23.73505112 -274.37106922 -23.74002059 -271.15858459 -23.741539 C-269.6375192 -23.74452184 -268.11645367 -23.75239762 -266.59544373 -23.76572418 C-252.64115384 -23.87902629 -238.49459479 -22.69866731 -225.4921875 -17.23046875 C-224.74864014 -16.92641113 -224.00509277 -16.62235352 -223.23901367 -16.30908203 C-200.7359448 -6.8506064 -178.58022944 10.93124498 -168.6796875 33.83203125 C-168.3496875 34.73953125 -168.0196875 35.64703125 -167.6796875 36.58203125 C-164.37299414 33.84510659 -162.81188218 30.18207946 -160.9921875 26.39453125 C-160.67185547 25.74033203 -160.35152344 25.08613281 -160.02148438 24.41210938 C-159.23540458 22.80475218 -158.45680067 21.19374267 -157.6796875 19.58203125 C-157.0196875 19.58203125 -156.3596875 19.58203125 -155.6796875 19.58203125 C-155.3084375 18.48955078 -155.3084375 18.48955078 -154.9296875 17.375 C-152.64684776 12.27427996 -148.4899071 8.59710136 -144.6796875 4.58203125 C-143.52919922 3.31746094 -143.52919922 3.31746094 -142.35546875 2.02734375 C-125.61737396 -15.73440312 -101.33013398 -25.64740331 -77.19140625 -27.31640625 C-47.7621175 -28.1675314 -22.0412832 -19.88856312 0 0 Z M-273.6796875 20.58203125 C-274.6459319 23.48076444 -274.803227 25.29630718 -274.79994202 28.30863953 C-274.80131668 29.28039124 -274.80269135 30.25214294 -274.80410767 31.25334167 C-274.80051239 32.31789078 -274.79691711 33.38243988 -274.79321289 34.47924805 C-274.79335892 35.60134674 -274.79350494 36.72344543 -274.7936554 37.87954712 C-274.79295748 41.59680093 -274.78517067 45.31400492 -274.77734375 49.03125 C-274.77547914 51.60529045 -274.77405544 54.17933126 -274.77305603 56.75337219 C-274.76962507 62.84128653 -274.76173968 68.92918024 -274.75170654 75.0170868 C-274.74053171 81.94809819 -274.7350315 88.87911042 -274.73001111 95.81012857 C-274.71955671 110.0674391 -274.7019658 124.32473454 -274.6796875 138.58203125 C-272.4389885 138.59812515 -270.19825605 138.60960718 -267.95751953 138.61914062 C-266.7097171 138.62602905 -265.46191467 138.63291748 -264.17630005 138.64001465 C-250.68323705 138.41626276 -239.66579156 133.06706302 -229.84765625 123.953125 C-227.45475813 121.87149642 -227.45475813 121.87149642 -227.6796875 119.58203125 C-226.6896875 119.25203125 -225.6996875 118.92203125 -224.6796875 118.58203125 C-213.06686273 103.84542815 -211.13145017 86.77727573 -212.6796875 68.58203125 C-214.51630508 53.96242778 -222.24154089 40.80459986 -233.6796875 31.58203125 C-246.35268502 22.80182187 -258.47571667 20.33458869 -273.6796875 20.58203125 Z M-106.09179688 34.18994141 C-118.8035857 50.30379219 -123.34255979 70.14200879 -121.1171875 90.39453125 C-119.00879708 105.66924163 -113.84080706 119.63328295 -101.33984375 129.28515625 C-88.41279841 138.49660044 -74.59613156 140.04846727 -59.15625 138.1484375 C-47.25900584 135.87354877 -37.55966114 129.57270581 -30.6796875 119.58203125 C-26.06581817 111.82848518 -21.72799106 103.64363827 -20.6796875 94.58203125 C-20.57269531 93.88335937 -20.46570313 93.1846875 -20.35546875 92.46484375 C-17.45597548 71.30230846 -21.70937555 52.78291563 -34.1484375 35.546875 C-41.11228008 26.74535174 -50.69163164 22.28351023 -61.6796875 20.58203125 C-77.61559825 18.91921566 -94.94579407 21.49845205 -106.09179688 34.18994141 Z " fill="#000000" transform="translate(664.6796875,50.41796875)"/>
<path d="M0 0 C-0.01160156 -0.99902344 -0.02320313 -1.99804688 -0.03515625 -3.02734375 C-0.04417969 -4.31769531 -0.05320313 -5.60804687 -0.0625 -6.9375 C-0.07410156 -8.22527344 -0.08570313 -9.51304688 -0.09765625 -10.83984375 C0 -14 0 -14 1 -15 C2.46805292 -15.09822744 3.9407746 -15.1279837 5.41210938 -15.12939453 C6.34978149 -15.13254669 7.28745361 -15.13569885 8.25354004 -15.13894653 C9.27330933 -15.1369223 10.29307861 -15.13489807 11.34375 -15.1328125 C12.90289124 -15.13424759 12.90289124 -15.13424759 14.49353027 -15.13571167 C16.69604554 -15.13639363 18.89856279 -15.13453827 21.10107422 -15.13037109 C24.48539719 -15.12502308 27.86958744 -15.13031559 31.25390625 -15.13671875 C33.38802113 -15.13605797 35.52213592 -15.13477681 37.65625 -15.1328125 C38.67601929 -15.13483673 39.69578857 -15.13686096 40.74645996 -15.13894653 C42.15296814 -15.13421829 42.15296814 -15.13421829 43.58789062 -15.12939453 C44.83246033 -15.12820114 44.83246033 -15.12820114 46.10217285 -15.12698364 C48 -15 48 -15 49 -14 C49.10401461 -12.31220582 49.1379756 -10.62005976 49.14476013 -8.92907715 C49.15510788 -7.28052231 49.15510788 -7.28052231 49.16566467 -5.59866333 C49.16958473 -3.77381912 49.16958473 -3.77381912 49.17358398 -1.91210938 C49.18384941 0.04235632 49.19411694 1.996822 49.20446312 3.95128727 C49.21471391 6.05968971 49.22255567 8.1680897 49.22979546 10.27650452 C49.24523018 14.6729427 49.26918303 19.06930848 49.29469299 23.46569824 C49.3659303 35.9702496 49.42552277 48.47484369 49.47680664 60.97949219 C49.50518354 67.88021778 49.54061152 74.78087258 49.58346039 81.6815238 C49.61013279 86.04529114 49.62810018 90.40897833 49.63949764 94.77281094 C49.65083322 98.14091326 49.67493903 101.50890459 49.69702148 104.87695312 C49.69761063 106.07732208 49.69819977 107.27769104 49.69880676 108.51443481 C49.7930222 119.38787234 51.19986913 129.93530571 58.34375 138.63671875 C66.01044026 145.72840724 75.92717855 145.58160216 85.73828125 145.2734375 C92.83331618 144.89993338 97.7085996 143.69843324 102.8125 138.5625 C114.60669713 123.57404115 112.26446913 100.66162371 112.16015625 82.7734375 C112.15387244 80.33354939 112.14863682 77.89365838 112.14439392 75.45376587 C112.1311664 69.0633872 112.1067719 62.6731063 112.07904053 56.28277588 C112.03572977 46.05041045 112.00607048 35.81801942 111.9829998 25.58559036 C111.97285831 22.03174371 111.95580308 18.47797925 111.93800354 14.92416382 C111.93116936 12.72597322 111.92456077 10.5277819 111.91821289 8.32958984 C111.90810684 6.87039879 111.90810684 6.87039879 111.89779663 5.38172913 C111.88665588 -1.45591564 112.34030287 -8.19538653 113 -15 C119.67520547 -15.02479312 126.35039362 -15.04283268 133.02563477 -15.05493164 C135.29842591 -15.05997325 137.5712138 -15.06680637 139.84399414 -15.07543945 C143.10303551 -15.08751261 146.36203417 -15.09322987 149.62109375 -15.09765625 C150.64400009 -15.10281754 151.66690643 -15.10797882 152.72080994 -15.11329651 C153.66170975 -15.11337204 154.60260956 -15.11344757 155.57202148 -15.11352539 C156.40475082 -15.115746 157.23748016 -15.11796661 158.09544373 -15.12025452 C160 -15 160 -15 161 -14 C161.10304001 -12.16317571 161.13521793 -10.32235547 161.14044189 -8.48265076 C161.14615204 -7.28434631 161.15186218 -6.08604187 161.15774536 -4.85142517 C161.15899095 -3.51089488 161.16011599 -2.17036447 161.16113281 -0.82983398 C161.16575923 0.57290783 161.17078365 1.97564838 161.17617798 3.37838745 C161.18933665 7.20366022 161.19575575 11.02891539 161.20018864 14.85420728 C161.20311886 17.24889121 161.20722397 19.64357035 161.21169281 22.03825188 C161.22538799 29.54328533 161.23504 37.04830781 161.2388947 44.55335289 C161.24335544 53.1901996 161.26080174 61.82688646 161.2898953 70.46368462 C161.31163038 77.15095159 161.32160554 83.83817405 161.32293582 90.52547592 C161.3239771 94.5122049 161.32973658 98.49878406 161.34775543 102.48547554 C161.36443747 106.2505157 161.36629599 110.01529685 161.35761642 113.78036118 C161.35649853 115.79309246 161.3700668 117.80581592 161.3843689 119.8184967 C161.32947547 132.04672703 159.91055079 144.57106268 154.5 155.6875 C154.20480469 156.33654297 153.90960938 156.98558594 153.60546875 157.65429688 C151.95232254 161.23368613 150.23763074 164.74921978 148 168 C147.34 168 146.68 168 146 168 C145.773125 168.556875 145.54625 169.11375 145.3125 169.6875 C143.61035232 172.6865221 141.52322238 174.64499245 139 177 C138.55269531 177.4640625 138.10539062 177.928125 137.64453125 178.40625 C121.97118875 193.55580471 97.14762757 195.15481746 76.65332031 194.97998047 C55.45530698 194.54085895 34.84209827 189.78615071 19.125 174.6875 C14.52567406 169.85655332 11.03466789 164.92296917 8 159 C7.58878906 158.20722656 7.17757812 157.41445312 6.75390625 156.59765625 C5.81222728 154.74362396 4.90210652 152.87360584 4 151 C3.8040625 151.58265625 3.608125 152.1653125 3.40625 152.765625 C-2.33442415 168.50299035 -12.16340674 179.03549351 -27.125 186.3125 C-51.72603994 197.64417167 -84.07755659 198.32981552 -109.73144531 189.84619141 C-139.72021336 178.66010983 -139.72021336 178.66010983 -148.50390625 168.2109375 C-149.30907157 164.62256293 -147.38109919 162.08087974 -145.625 159.0625 C-145.25576416 158.4015332 -144.88652832 157.74056641 -144.50610352 157.05957031 C-140.85857828 150.59262338 -136.9765113 144.26913213 -133 138 C-131.98099609 136.38931641 -131.98099609 136.38931641 -130.94140625 134.74609375 C-129.30008841 132.1602751 -127.65332421 129.57815244 -126 127 C-121.00894986 127.60308523 -118.9349751 128.79725956 -115.21875 132.1875 C-101.98640523 142.99702108 -84.56704869 149.01292445 -67.546875 147.7421875 C-61.24672707 146.95107303 -55.95367978 146.09217026 -51 142 C-47.9195465 137.25006995 -47.71994809 132.66952115 -48.3828125 127.17578125 C-50.5527485 119.52607017 -56.47797786 116.67780905 -63 113 C-67.11691741 110.86736852 -71.29328129 108.88601081 -75.5 106.9375 C-87.25658796 101.44868808 -98.60816971 95.83731683 -109 88 C-109.68835938 87.49082031 -110.37671875 86.98164063 -111.0859375 86.45703125 C-120.5014707 78.92088314 -126.64489126 68.46328821 -130 57 C-130.33 56.01 -130.66 55.02 -131 54 C-132.1518799 35.04118985 -128.87667117 20.47532164 -117.6875 4.75 C-86.21463926 -27.45478774 -35.57599206 -24.45849454 0 0 Z M-2 7 C-3.00460531 9.12282669 -4.00355602 11.24833021 -5 13.375 C-5.556875 14.55835938 -6.11375 15.74171875 -6.6875 16.9609375 C-8.13216041 19.75428575 -8.13216041 19.75428575 -8 22 C-8.66 22 -9.32 22 -10 22 C-10.44730469 23.14339844 -10.89460938 24.28679687 -11.35546875 25.46484375 C-11.96512156 26.95614831 -12.57585513 28.44701136 -13.1875 29.9375 C-13.47947266 30.69224609 -13.77144531 31.44699219 -14.07226562 32.22460938 C-16.32920649 37.63641381 -16.32920649 37.63641381 -19.27734375 39.234375 C-23.14904449 38.90108656 -26.05518594 37.18372658 -29.375 35.3125 C-42.24466331 28.5290411 -57.5931703 23.61111886 -72.08984375 27.91796875 C-77.17449304 30.22510037 -80.72819634 32.73354605 -83 38 C-83.80138829 42.25417826 -83.37356398 45.1879044 -81.5625 49.125 C-73.09039594 58.63028748 -59.45731662 63.58998189 -48.015625 68.67578125 C-27.03558902 78.01704349 -27.03558902 78.01704349 -19 85 C-18.26007813 85.61746094 -17.52015625 86.23492187 -16.7578125 86.87109375 C-11.88877299 91.01780322 -7.30982609 95.36205679 -3.25 100.3125 C-2.5075 101.199375 -1.765 102.08625 -1 103 C-0.67 103 -0.34 103 0 103 C0 71.65 0 40.3 0 8 C-0.99 7.505 -0.99 7.505 -2 7 Z " fill="#000000" transform="translate(179,42)"/>
<path d="M0 0 C3.22886009 -0.11667875 6.45717445 -0.18740546 9.6875 -0.25 C11.05551758 -0.30027344 11.05551758 -0.30027344 12.45117188 -0.3515625 C16.72373578 -0.41370888 19.32212456 -0.37631431 23.1171875 1.73046875 C25.23972615 4.28896451 25.60909418 5.2911399 25.4375 8.5625 C25.41558594 9.32691406 25.39367187 10.09132813 25.37109375 10.87890625 C25 13 25 13 23 16 C23.66 16.66 24.32 17.32 25 18 C27.25149539 21.37724308 27.5958414 23.11866888 27.39453125 27.0703125 C26.49792711 31.45568322 23.54981573 33.63345618 20 36 C17.94702148 36.25878906 17.94702148 36.25878906 15.62109375 36.265625 C14.78255859 36.26820313 13.94402344 36.27078125 13.08007812 36.2734375 C12.20802734 36.26570313 11.33597656 36.25796875 10.4375 36.25 C9.12362305 36.26160156 9.12362305 36.26160156 7.78320312 36.2734375 C6.94595703 36.27085937 6.10871094 36.26828125 5.24609375 36.265625 C4.47966553 36.26336914 3.7132373 36.26111328 2.92358398 36.25878906 C1 36 1 36 -1 34 C-1.24291992 30.8671875 -1.24291992 30.8671875 -1.23046875 26.875 C-1.23001053 26.1722998 -1.22955231 25.46959961 -1.2290802 24.74560547 C-1.22605825 23.25942294 -1.21817359 21.77324356 -1.20581055 20.28710938 C-1.18757206 18.00900075 -1.18530075 15.73129896 -1.18554688 13.453125 C-1.14752629 2.29505259 -1.14752629 2.29505259 0 0 Z M6 6 C5.95758277 8.33294775 5.95907063 10.66702567 6 13 C7.58894072 14.58894072 9.24801424 14.16998411 11.4375 14.1875 C12.24058594 14.20167969 13.04367187 14.21585937 13.87109375 14.23046875 C16.21630633 14.20162356 16.21630633 14.20162356 18 12 C18.2500773 9.45809998 18.2500773 9.45809998 18 7 C16.94021067 5.71387324 16.94021067 5.71387324 14.49609375 5.90234375 C13.48675781 5.91394531 12.47742188 5.92554688 11.4375 5.9375 C10.42558594 5.94652344 9.41367187 5.95554687 8.37109375 5.96484375 C7.58863281 5.97644531 6.80617188 5.98804688 6 6 Z M6 21 C5.83946185 22.87321948 5.83946185 22.87321948 5.875 25 C5.87242187 25.721875 5.86984375 26.44375 5.8671875 27.1875 C5.80304724 29.02089415 5.80304724 29.02089415 7 30 C9.2622358 30.23846903 9.2622358 30.23846903 11.875 30.25 C12.75929688 30.27578125 13.64359375 30.3015625 14.5546875 30.328125 C17.03927964 30.18913165 17.03927964 30.18913165 18.83984375 28.68359375 C20.33613664 26.89959966 20.33613664 26.89959966 19.6875 23.8125 C19.460625 22.884375 19.23375 21.95625 19 21 C16.15785932 20.05261977 14.32391609 19.86539441 11.375 19.875 C10.57835937 19.87242187 9.78171875 19.86984375 8.9609375 19.8671875 C6.99646464 19.78429926 6.99646464 19.78429926 6 21 Z " fill="#000000" transform="translate(383,265)"/>
<path d="M0 0 C4.11962237 1.76555244 5.02653793 5.18552788 6.625 9.125 C7.35589844 10.91744141 7.35589844 10.91744141 8.1015625 12.74609375 C9.13608989 15.30550623 10.15348074 17.87092693 11.16015625 20.44140625 C12.16873085 22.97763518 13.2129472 25.4510905 14.328125 27.9375 C15.625 31.125 15.625 31.125 15.3125 33.5625 C15.085625 34.078125 14.85875 34.59375 14.625 35.125 C12.645 35.62 12.645 35.62 10.625 36.125 C8.73286631 33.73926621 7.60108217 32.05324652 6.625 29.125 C3.74084117 27.68292059 1.20778472 28.03105113 -2 28.0625 C-3.78277344 28.07603516 -3.78277344 28.07603516 -5.6015625 28.08984375 C-6.97441406 28.10724609 -6.97441406 28.10724609 -8.375 28.125 C-9.365 31.59 -9.365 31.59 -10.375 35.125 C-12.03114657 35.50718767 -13.69957024 35.83895102 -15.375 36.125 C-15.705 35.795 -16.035 35.465 -16.375 35.125 C-16.06772714 28.2113607 -13.12148888 22.38494939 -10.375 16.125 C-9.84132172 14.85388137 -9.31013838 13.58171282 -8.78125 12.30859375 C-8.25009756 11.03902168 -7.71884935 9.76948967 -7.1875 8.5 C-6.45466797 6.74816406 -6.45466797 6.74816406 -5.70703125 4.9609375 C-3.46248978 0.1822363 -3.46248978 0.1822363 0 0 Z M-1.375 11.125 C-2.365 14.425 -3.355 17.725 -4.375 21.125 C-1.735 21.125 0.905 21.125 3.625 21.125 C2.39763971 16.97085747 1.297336 14.68811466 -1.375 11.125 Z " fill="#000000" transform="translate(331.375,264.875)"/>
<path d="M0 0 C0.1875 2.625 0.1875 2.625 0 5 C-1.6875 5.6875 -1.6875 5.6875 -4 6 C-4.78375 5.525625 -5.5675 5.05125 -6.375 4.5625 C-9.51970134 2.69065397 -11.39856486 2.67987243 -15 3 C-15.99 3.495 -15.99 3.495 -17 4 C-16.99832659 6.4398447 -16.99832659 6.4398447 -16 9 C-13.15008191 10.5259915 -13.15008191 10.5259915 -9.6875 11.5 C-4.5814289 13.10100774 -1.90042696 14.41116024 1 19 C1.74701654 23.56510107 1.38661728 25.39733189 -1.125 29.3125 C-4.72693206 32.67952345 -7.21039997 33.96487914 -12.171875 34.02734375 C-17.41547042 33.68422257 -20.90239949 32.48296043 -25 29 C-25.33 28.01 -25.66 27.02 -26 26 C-25.67 25.34 -25.34 24.68 -25 24 C-19.375 23.75 -19.375 23.75 -16 26 C-11.34582831 26.34222445 -11.34582831 26.34222445 -7 25 C-6.98707433 22.56431934 -6.98707433 22.56431934 -8 20 C-10.94932149 18.4040017 -10.94932149 18.4040017 -14.5 17.375 C-18.09375 16.2109375 -18.09375 16.2109375 -21 15 C-21.33 14.01 -21.66 13.02 -22 12 C-22.66 12 -23.32 12 -24 12 C-25.33998624 5.78733655 -25.33998624 5.78733655 -23.8125 2.25 C-21.22184227 -0.96598891 -19.29666294 -2.60798562 -15.3125 -3.8125 C-9.69218465 -4.13063106 -4.69580314 -3.13053543 0 0 Z " fill="#000000" transform="translate(470,268)"/>
<path d="M0 0 C2.5 0.3125 2.5 0.3125 5 1 C6.38308781 3.76617563 6.11210196 6.01018 6.09765625 9.1015625 C6.09282227 10.91914063 6.09282227 10.91914063 6.08789062 12.7734375 C6.07951172 14.04445313 6.07113281 15.31546875 6.0625 16.625 C6.05798828 17.90375 6.05347656 19.1825 6.04882812 20.5 C6.03701213 23.66668645 6.01907621 26.83334896 6 30 C10.95 30 15.9 30 21 30 C21 31.65 21 33.3 21 35 C19.41062444 36.58937556 17.76100154 36.12981143 15.5625 36.1328125 C14.22058594 36.13474609 14.22058594 36.13474609 12.8515625 36.13671875 C11.91054688 36.13285156 10.96953125 36.12898438 10 36.125 C8.58847656 36.13080078 8.58847656 36.13080078 7.1484375 36.13671875 C6.25382812 36.13542969 5.35921875 36.13414062 4.4375 36.1328125 C3.61121094 36.13168457 2.78492188 36.13055664 1.93359375 36.12939453 C0 36 0 36 -1 35 C-1.10087212 32.49075847 -1.13972032 30.00963616 -1.1328125 27.5 C-1.13376923 26.74912109 -1.13472595 25.99824219 -1.13571167 25.22460938 C-1.13639338 23.63411373 -1.13453972 22.04361533 -1.13037109 20.453125 C-1.12502267 18.01035345 -1.13031634 15.56776579 -1.13671875 13.125 C-1.13605797 11.58333293 -1.1347768 10.04166597 -1.1328125 8.5 C-1.13483673 7.76458984 -1.13686096 7.02917969 -1.13894653 6.27148438 C-1.11495161 1.11495161 -1.11495161 1.11495161 0 0 Z " fill="#000000" transform="translate(260,265)"/>
<path d="M0 0 C3.17247906 2.86263052 6.13144936 5.83470274 9 9 C9.64582031 9.70125 10.29164063 10.4025 10.95703125 11.125 C14.32641539 14.87033647 17.53944019 18.591497 20 23 C19.67 23.99 19.34 24.98 19 26 C18.38253906 25.17757812 17.76507812 24.35515625 17.12890625 23.5078125 C-1.20701318 -0.75022189 -22.78349179 -17.00884917 -53.375 -21.3359375 C-64.59012202 -22.66593594 -75.78724567 -22.02768288 -87 -21 C-87 -21.66 -87 -22.32 -87 -23 C-55.01351809 -28.33843353 -24.93139659 -21.16596052 0 0 Z " fill="#1F1F1F" transform="translate(662,48)"/>
<path d="M0 0 C5.93774734 -0.10152795 11.64150827 0.50942579 17.51000977 1.37231445 C18.3872168 1.49026367 19.26442383 1.60821289 20.16821289 1.72973633 C36.02037713 4.00768182 36.02037713 4.00768182 40.07250977 8.05981445 C34.99426508 7.55198998 30.11946143 6.66687035 25.13500977 5.55981445 C4.64020849 1.10442287 -17.44885467 1.5418282 -35.68774414 13.18334961 C-45.48786255 19.91532104 -52.98064907 27.7556104 -58.92749023 38.05981445 C-59.58749023 37.72981445 -60.24749023 37.39981445 -60.92749023 37.05981445 C-51.34389922 20.26432919 -37.38223257 8.28242629 -18.67749023 2.62231445 C-12.42932663 1.03758469 -6.42668714 0.19943488 0 0 Z " fill="#242424" transform="translate(113.927490234375,22.940185546875)"/>
<path d="M0 0 C0 0.66 0 1.32 0 2 C-0.88300781 2.40089844 -1.76601562 2.80179688 -2.67578125 3.21484375 C-17.08442154 9.95514999 -27.92279377 19.11114539 -36 33 C-36.66 32.67 -37.32 32.34 -38 32 C-30.89737517 19.55247063 -16.05482431 0 0 0 Z " fill="#202020" transform="translate(91,28)"/>
<path d="M0 0 C0.33 0 0.66 0 1 0 C1.43765884 6.12722379 0.61330171 11.40219914 -0.875 17.3125 C-1.04870117 18.00601563 -1.22240234 18.69953125 -1.40136719 19.4140625 C-2.29298371 22.80912726 -3.25563817 25.94343805 -5 29 C-6.04385502 25.86843493 -5.99287275 25.07968059 -5.2578125 22.015625 C-5.07863281 21.24476563 -4.89945313 20.47390625 -4.71484375 19.6796875 C-4.52019531 18.87789062 -4.32554687 18.07609375 -4.125 17.25 C-2.54621951 10.66162819 -2.54621951 10.66162819 -1.4296875 3.984375 C-1 1 -1 1 0 0 Z " fill="#0E0E0E" transform="translate(696,141)"/>
<path d="M0 0 C22.98608964 0.98608964 22.98608964 0.98608964 28 6 C20.5928819 5.37727768 13.31805865 4.29512034 6 3 C6 2.34 6 1.68 6 1 C4.02 1 2.04 1 0 1 C0 0.67 0 0.34 0 0 Z " fill="#1E1E1E" transform="translate(406,27)"/>
<path d="M0 0 C0.33 0.99 0.66 1.98 1 3 C-0.58203125 5.59375 -0.58203125 5.59375 -2.8125 8.5 C-3.54082031 9.4590625 -4.26914062 10.418125 -5.01953125 11.40625 C-5.67308594 12.2621875 -6.32664062 13.118125 -7 14 C-7.99 15.485 -7.99 15.485 -9 17 C-9.66 16.67 -10.32 16.34 -11 16 C-9.54474479 13.70632614 -8.08596157 11.41503485 -6.625 9.125 C-6.2125 8.47402344 -5.8 7.82304688 -5.375 7.15234375 C-3.71997146 4.56302491 -2.18002621 2.18002621 0 0 Z " fill="#191919" transform="translate(64,44)"/>
<path d="M0 0 C0.78503906 0.17144531 1.57007813 0.34289062 2.37890625 0.51953125 C4.4375 1.1875 4.4375 1.1875 6.4375 3.1875 C4.85340006 3.07262252 3.27021037 2.94515492 1.6875 2.8125 C0.80578125 2.74289063 -0.0759375 2.67328125 -0.984375 2.6015625 C-3.55316382 2.18899945 -5.32091015 1.47589043 -7.5625 0.1875 C-4.33044982 -0.88985006 -3.22672565 -0.73890423 0 0 Z " fill="#101010" transform="translate(427.5625,29.8125)"/>
</svg>
